<?xml version="1.0" encoding="utf-8"?>
<!-- Generator: Adobe Illustrator 16.0.0, SVG Export Plug-In . SVG Version: 6.00 Build 0)  -->
<!DOCTYPE svg PUBLIC "-//W3C//DTD SVG 1.1//EN" "http://www.w3.org/Graphics/SVG/1.1/DTD/svg11.dtd">
<svg version="1.1" id="Layer_1" xmlns="http://www.w3.org/2000/svg" xmlns:xlink="http://www.w3.org/1999/xlink" x="0px" y="0px"
	 width="260px" height="70px" viewBox="0 0 260 70" enable-background="new 0 0 260 70" xml:space="preserve">
<g>
	<path d="M12.728,21.75c0,4.525-2.465,7.354-6.384,7.354c-1.212,0-2.021-0.122-2.95-0.445l-1.091-0.364
		c-0.202-0.04-0.283-0.202-0.243-0.404l0.323-0.929c0.041-0.162,0.202-0.243,0.404-0.202l1.01,0.323
		c0.809,0.242,1.374,0.323,2.546,0.323c2.909,0,4.646-2.021,4.646-5.657V1.427c0-0.202,0.121-0.323,0.323-0.323h1.091
		c0.202,0,0.323,0.121,0.323,0.323V21.75z"/>
	<path d="M31.877,28.458c-1.455,0.444-2.869,0.646-4.485,0.646c-5.334,0-8.566-3.839-8.566-10.021
		c0-6.182,3.273-10.021,8.566-10.021c4.444,0,7.071,2.141,7.071,5.778c0,2.667-1.697,4.283-5.131,4.889l-8.647,1.454
		c0.566,4,2.99,6.263,6.708,6.263c1.495,0,2.747-0.122,4-0.525l0.97-0.323c0.202-0.041,0.363,0.041,0.444,0.243l0.283,0.929
		c0.081,0.202,0,0.364-0.202,0.404L31.877,28.458z M29.009,18.154c2.464-0.444,3.757-1.576,3.757-3.313
		c0-2.626-1.98-4.122-5.374-4.122c-4.324,0-6.829,2.99-6.869,8.889L29.009,18.154z"/>
	<path d="M49.087,10.396c0,0.202-0.121,0.323-0.323,0.323c-4.323,0.202-7.071,4.081-7.071,10.586v7.071
		c0,0.202-0.122,0.323-0.323,0.323h-1.051c-0.202,0-0.323-0.121-0.323-0.323V9.791c0-0.202,0.122-0.323,0.323-0.323h0.97
		c0.202,0,0.323,0.121,0.323,0.323v3.435c0.041,0.283,0.283,0.323,0.445,0.081c1.454-2.586,3.556-4.121,6.707-4.242
		c0.202,0,0.323,0.121,0.323,0.323V10.396z"/>
	<path d="M65.773,28.458c-1.455,0.444-2.869,0.646-4.485,0.646c-5.334,0-8.566-3.839-8.566-10.021
		c0-6.182,3.273-10.021,8.566-10.021c4.444,0,7.071,2.141,7.071,5.778c0,2.667-1.697,4.283-5.131,4.889l-8.647,1.454
		c0.566,4,2.99,6.263,6.708,6.263c1.495,0,2.747-0.122,4-0.525l0.97-0.323c0.202-0.041,0.363,0.041,0.444,0.243l0.283,0.929
		c0.081,0.202,0,0.364-0.202,0.404L65.773,28.458z M62.904,18.154c2.464-0.444,3.757-1.576,3.757-3.313
		c0-2.626-1.98-4.122-5.374-4.122c-4.324,0-6.829,2.99-6.869,8.889L62.904,18.154z"/>
	<path d="M75.508,12.619c0,0.323,0.243,0.363,0.444,0.04c1.536-2.303,3.354-3.596,6.505-3.596c3.152,0,4.93,1.939,5.738,4.121
		c0.121,0.364,0.444,0.323,0.606,0.041c1.657-2.869,3.879-4.162,6.99-4.162c3.959,0,6.424,3.07,6.424,7.919v11.395
		c0,0.202-0.121,0.323-0.323,0.323h-1.051c-0.202,0-0.323-0.121-0.323-0.323V17.063c0-3.96-1.737-6.344-4.768-6.344
		c-4.849,0-6.869,3.839-6.869,9.091v8.566c0,0.202-0.121,0.323-0.323,0.323h-1.01c-0.202,0-0.323-0.121-0.323-0.323V17.023
		c0-3.919-1.818-6.303-4.849-6.303c-4.809,0-6.788,3.839-6.788,9.091v8.566c0,0.202-0.121,0.323-0.323,0.323h-1.051
		c-0.202,0-0.323-0.121-0.323-0.323V9.791c0-0.202,0.121-0.323,0.323-0.323h0.97c0.202,0,0.323,0.121,0.323,0.323V12.619z"/>
	<path d="M112.07,36.943c-0.081,0.161-0.202,0.242-0.404,0.242h-1.091c-0.243,0-0.323-0.162-0.243-0.364l3.152-6.949
		c0.727-1.576,0.364-3.596-0.485-5.536l-6.708-14.505c-0.081-0.202,0-0.364,0.243-0.364h1.131c0.202,0,0.323,0.081,0.404,0.243
		l5.576,12.162c0.687,1.495,1.212,2.788,1.414,3.717c0.081,0.323,0.364,0.323,0.485,0c0.283-0.929,0.97-2.505,1.576-3.717
		l5.495-12.162c0.081-0.162,0.202-0.243,0.404-0.243h1.131c0.242,0,0.323,0.162,0.242,0.364L112.07,36.943z"/>
	<path d="M149.764,1.104c4.93,0,7.879,2.424,7.879,6.545c0,3.031-1.535,5.495-4.484,6.546c-0.485,0.121-0.485,0.404,0.04,0.525
		c3.435,0.849,5.374,3.313,5.374,6.91c0,4.444-3.03,7.071-8.283,7.071h-11.232c-0.202,0-0.323-0.121-0.323-0.323V1.427
		c0-0.202,0.121-0.323,0.323-0.323H149.764z M140.471,13.71h7.192c5.333,0,8.202-2.384,8.202-6.021c0-3.071-2.344-5.01-6.102-5.01
		h-9.293V13.71z M140.471,27.084h9.818c4.041,0,6.506-2.021,6.506-5.495c0-4.081-3.152-6.263-9.051-6.263h-7.273V27.084z"/>
	<path d="M166.004,25.872c0,0.97,0.444,1.576,1.172,1.576c0.161,0,0.282,0,0.404-0.041c0.201-0.041,0.322,0,0.403,0.162l0.404,0.97
		c0.081,0.162,0.04,0.323-0.161,0.404c-0.324,0.081-0.688,0.162-1.051,0.162c-1.778,0-2.869-1.212-2.869-3.232V0.699
		c0-0.202,0.121-0.323,0.323-0.323h1.051c0.202,0,0.323,0.121,0.323,0.323V25.872z"/>
	<path d="M175.78,9.669c1.091-0.364,2.586-0.606,4.323-0.606c4.646,0,7.557,3.03,7.557,7.879v11.435
		c0,0.202-0.122,0.323-0.324,0.323h-0.929c-0.202,0-0.323-0.121-0.323-0.323v-2.142c-0.041-0.525-0.363-0.444-0.688,0
		c-1.454,1.899-3.596,2.869-6.828,2.869c-3.919,0-6.223-2.182-6.223-5.697c0-3.394,2.344-5.738,6.95-5.778h6.626v-0.687
		c0-3.919-2.101-6.223-5.858-6.223c-1.495,0-2.828,0.202-3.879,0.485l-1.414,0.485c-0.202,0.041-0.364-0.04-0.404-0.242l-0.323-0.93
		c-0.04-0.202,0.041-0.363,0.242-0.404L175.78,9.669z M179.296,19.245c-3.597,0-5.253,1.697-5.253,4.122
		c0,2.586,1.616,4.122,4.566,4.122c4.605,0,7.312-2.829,7.312-7.556v-0.687H179.296z"/>
	<path d="M195.657,25.872c0,0.97,0.444,1.576,1.172,1.576c0.161,0,0.282,0,0.403-0.041c0.202-0.041,0.324,0,0.404,0.162l0.404,0.97
		c0.081,0.162,0.04,0.323-0.162,0.404c-0.322,0.081-0.687,0.162-1.05,0.162c-1.778,0-2.869-1.212-2.869-3.232V0.699
		c0-0.202,0.121-0.323,0.323-0.323h1.051c0.202,0,0.323,0.121,0.323,0.323V25.872z"/>
	<path d="M219.131,19.084c0,6.142-3.272,10.021-8.565,10.021s-8.566-3.879-8.566-10.021c0-6.182,3.273-10.021,8.566-10.021
		S219.131,12.902,219.131,19.084z M203.696,19.084c0,5.212,2.586,8.364,6.869,8.364c4.282,0,6.828-3.152,6.828-8.364
		c0-5.253-2.546-8.364-6.828-8.364C206.282,10.72,203.696,13.831,203.696,19.084z"/>
	<path d="M236.462,28.377c-1.333,0.404-2.667,0.728-4.121,0.728c-5.778,0-8.89-3.879-8.89-10.021c0-6.182,3.071-10.021,8.93-10.021
		c1.293,0,2.505,0.242,3.839,0.646l1.01,0.283c0.202,0.041,0.283,0.202,0.202,0.404l-0.283,0.889
		c-0.08,0.202-0.242,0.283-0.444,0.242l-0.97-0.323c-1.252-0.364-2.384-0.485-3.312-0.485c-4.89,0-7.273,3.152-7.273,8.364
		c0,5.212,2.465,8.364,7.151,8.364c1.132,0,2.384-0.162,3.677-0.566l1.051-0.323c0.162-0.04,0.323,0.041,0.404,0.202l0.283,0.889
		c0.08,0.202,0,0.364-0.202,0.404L236.462,28.377z"/>
	<path d="M257.712,28.296c0.162,0.243,0.081,0.404-0.202,0.404h-1.333c-0.161,0-0.283-0.041-0.404-0.202l-3.798-4.687
		c-1.656-2.02-3.151-4.041-5.939-4.041h-0.97v8.606c0,0.202-0.121,0.323-0.323,0.323h-1.051c-0.202,0-0.323-0.121-0.323-0.323V0.699
		c0-0.202,0.121-0.323,0.323-0.323h1.051c0.202,0,0.323,0.121,0.323,0.323v17.496h0.889c2.344,0,4.243-2.303,5.858-4.162
		l3.678-4.364c0.121-0.162,0.242-0.202,0.403-0.202h1.334c0.282,0,0.363,0.202,0.202,0.404l-4.122,4.889
		c-1.454,1.778-2.989,3.475-4.282,3.96c-0.283,0.121-0.283,0.242,0,0.364c1.656,0.565,2.949,2.141,4.525,4.081L257.712,28.296z"/>
</g>
<g opacity="0.5">
	<path d="M6.931,66.088c-0.352,0.881-0.672,1.921-0.896,2.817c-0.016,0.08-0.08,0.128-0.16,0.128H4.962
		c-0.08,0-0.144-0.048-0.16-0.128c-0.224-0.896-0.528-1.937-0.88-2.817l-3.297-7.907c-0.032-0.096,0.016-0.16,0.112-0.16h0.833
		c0.096,0,0.144,0.032,0.176,0.112l2.993,7.219c0.288,0.736,0.496,1.505,0.592,2.001c0.016,0.145,0.176,0.145,0.192,0
		c0.096-0.496,0.304-1.265,0.592-2.001l2.994-7.219c0.032-0.08,0.08-0.112,0.176-0.112h0.833c0.096,0,0.144,0.064,0.112,0.16
		L6.931,66.088z"/>
	<path d="M13.873,68.89c0,0.096-0.048,0.144-0.144,0.144H12.96c-0.096,0-0.144-0.048-0.144-0.144V58.165
		c0-0.096,0.048-0.145,0.144-0.145h0.768c0.096,0,0.144,0.049,0.144,0.145V68.89z"/>
	<path d="M19.377,63.511c-1.761-0.656-2.385-1.521-2.385-2.864c0-1.761,1.361-2.802,3.474-2.802c0.832,0,1.601,0.145,2.417,0.4
		l0.8,0.256c0.096,0.032,0.128,0.097,0.096,0.192l-0.224,0.656c-0.032,0.08-0.096,0.112-0.176,0.08l-0.769-0.24
		c-0.704-0.224-1.376-0.336-2.145-0.336c-1.441,0-2.401,0.688-2.401,1.793c0,0.736,0.336,1.424,1.729,1.937l2.209,0.832
		c1.504,0.561,2.417,1.312,2.417,2.77c0,1.904-1.617,3.009-3.858,3.009c-1.2,0-2.097-0.208-3.009-0.544l-0.641-0.24
		c-0.08-0.032-0.112-0.096-0.08-0.176l0.24-0.656c0.032-0.097,0.096-0.128,0.176-0.097l0.64,0.24c0.769,0.272,1.553,0.48,2.673,0.48
		c1.505,0,2.77-0.721,2.77-2.017c0-0.944-0.816-1.489-1.729-1.841L19.377,63.511z"/>
	<path d="M35.331,64.712c0,2.817-1.504,4.481-4.082,4.481s-4.082-1.664-4.082-4.481v-6.547c0-0.096,0.048-0.145,0.144-0.145h0.768
		c0.096,0,0.145,0.049,0.145,0.145v6.547c0,2.209,1.104,3.489,3.025,3.489s3.025-1.28,3.025-3.489v-6.547
		c0-0.096,0.048-0.145,0.144-0.145h0.768c0.096,0,0.144,0.049,0.144,0.145V64.712z"/>
	<path d="M39.712,66.232l-1.088,2.689c-0.032,0.079-0.08,0.111-0.176,0.111h-0.832c-0.096,0-0.144-0.063-0.112-0.16l3.297-7.971
		c0.353-0.881,0.688-1.873,0.929-2.753c0.016-0.097,0.08-0.129,0.16-0.129h0.945c0.08,0,0.144,0.032,0.16,0.129
		c0.24,0.88,0.592,1.856,0.944,2.753l3.282,7.971c0.032,0.097-0.016,0.16-0.112,0.16h-0.816c-0.096,0-0.144-0.032-0.176-0.111
		l-1.088-2.689H39.712z M44.626,65.256l-1.473-3.537c-0.288-0.721-0.56-1.569-0.688-2.129c-0.032-0.145-0.176-0.145-0.208,0
		c-0.112,0.56-0.384,1.393-0.688,2.129l-1.457,3.537H44.626z"/>
	<path d="M56.435,68.073c0.096,0,0.144,0.048,0.144,0.144v0.673c0,0.096-0.048,0.144-0.144,0.144h-6.387
		c-0.096,0-0.144-0.048-0.144-0.144V58.165c0-0.096,0.048-0.145,0.144-0.145h0.768c0.096,0,0.144,0.049,0.144,0.145v9.908H56.435z"
		/>
	<path d="M71.011,69.033c-0.08,0-0.128-0.016-0.192-0.08l-1.745-1.841l-1.072,0.961c-0.913,0.864-1.649,1.12-2.657,1.12
		c-1.537,0-2.481-0.896-2.481-2.337c0-0.896,0.288-1.553,1.312-2.465l1.216-1.152c-0.848-0.929-1.152-1.681-1.152-2.609
		c0-1.681,1.281-2.785,3.153-2.785c0.864,0,1.28,0.112,2.081,0.368l0.624,0.208c0.096,0.032,0.128,0.097,0.096,0.192l-0.224,0.641
		c-0.032,0.08-0.096,0.111-0.176,0.08l-0.624-0.192c-0.641-0.208-1.009-0.305-1.777-0.305c-1.281,0-2.129,0.688-2.129,1.793
		c0,0.704,0.192,1.232,0.977,2.065l2.865,3.041l0.208-0.177c0.784-0.768,1.136-1.104,1.136-1.872v-0.48h-1.024
		c-0.096,0-0.144-0.048-0.144-0.144v-0.656c0-0.097,0.048-0.145,0.144-0.145h1.889c0.096,0,0.144,0.048,0.144,0.145v1.28
		c0,1.104-0.448,1.633-1.521,2.641l-0.144,0.128l2.257,2.401c0.08,0.096,0.048,0.176-0.08,0.176H71.011z M66.049,63.943
		l-1.312,1.217c-0.688,0.672-0.832,1.12-0.832,1.696c0,0.832,0.528,1.345,1.44,1.345c0.8,0,1.329-0.192,2.049-0.896l0.992-0.912
		L66.049,63.943z"/>
	<path d="M84.978,62.903c0.096,0,0.144,0.048,0.144,0.144v0.673c0,0.096-0.048,0.144-0.144,0.144H80v4.21h6.146
		c0.096,0,0.144,0.048,0.144,0.144v0.673c0,0.096-0.048,0.144-0.144,0.144h-7.059c-0.096,0-0.144-0.048-0.144-0.144V58.165
		c0-0.096,0.048-0.145,0.144-0.145h6.995c0.112,0,0.16,0.064,0.128,0.16l-0.208,0.673c-0.016,0.096-0.08,0.128-0.16,0.128H80v3.922
		H84.978z"/>
	<path d="M94.273,62.695c-0.24,0.368-0.384,0.544-0.592,0.672c-0.08,0.048-0.08,0.144,0,0.192c0.224,0.128,0.384,0.304,0.592,0.672
		l2.977,4.626c0.064,0.096,0.016,0.176-0.096,0.176h-0.88c-0.08,0-0.128-0.032-0.176-0.096l-2.977-4.658
		c-0.08-0.128-0.176-0.128-0.272,0l-2.994,4.658c-0.048,0.063-0.096,0.096-0.176,0.096h-0.88c-0.112,0-0.16-0.08-0.096-0.176
		l2.993-4.626c0.208-0.384,0.384-0.561,0.592-0.672c0.064-0.049,0.08-0.145,0-0.192c-0.224-0.128-0.384-0.32-0.576-0.672
		l-2.913-4.498c-0.064-0.097-0.016-0.177,0.096-0.177h0.864c0.08,0,0.128,0.032,0.176,0.097l2.914,4.498
		c0.08,0.144,0.192,0.144,0.272,0l2.897-4.498c0.048-0.064,0.096-0.097,0.176-0.097h0.88c0.112,0,0.16,0.08,0.096,0.177
		L94.273,62.695z"/>
	<path d="M104.257,58.021c2.305,0,3.649,1.233,3.649,3.313c0,2.241-1.537,3.458-4.546,3.458h-2.065v4.098
		c0,0.096-0.048,0.144-0.144,0.144h-0.768c-0.096,0-0.144-0.048-0.144-0.144V58.165c0-0.096,0.048-0.145,0.144-0.145H104.257z
		 M101.296,63.831h2.065c2.321,0,3.458-0.88,3.458-2.497c0-1.488-0.96-2.353-2.561-2.353h-2.961V63.831z"/>
	<path d="M116.754,62.903c0.096,0,0.144,0.048,0.144,0.144v0.673c0,0.096-0.048,0.144-0.144,0.144h-4.978v4.21h6.146
		c0.096,0,0.144,0.048,0.144,0.144v0.673c0,0.096-0.048,0.144-0.144,0.144h-7.059c-0.096,0-0.144-0.048-0.144-0.144V58.165
		c0-0.096,0.048-0.145,0.144-0.145h6.995c0.112,0,0.16,0.064,0.128,0.16l-0.208,0.673c-0.016,0.096-0.08,0.128-0.16,0.128h-5.842
		v3.922H116.754z"/>
	<path d="M125.217,58.021c2.129,0,3.394,1.104,3.394,2.978c0,1.473-0.896,2.417-2.353,2.897c-0.192,0.063-0.208,0.16-0.016,0.256
		c0.785,0.384,1.297,1.137,1.649,1.969l1.168,2.737c0.048,0.112,0,0.176-0.096,0.176h-0.832c-0.08,0-0.128-0.032-0.16-0.111
		l-1.041-2.401c-0.624-1.505-1.568-2.193-3.153-2.193h-1.841v4.562c0,0.096-0.048,0.144-0.144,0.144h-0.768
		c-0.096,0-0.144-0.048-0.144-0.144V58.165c0-0.096,0.048-0.145,0.144-0.145H125.217z M124.241,63.367
		c2.097,0,3.297-0.849,3.297-2.321c0-1.296-0.88-2.064-2.321-2.064h-3.281v4.386H124.241z"/>
	<path d="M133.008,68.89c0,0.096-0.049,0.144-0.145,0.144h-0.769c-0.096,0-0.144-0.048-0.144-0.144V58.165
		c0-0.096,0.048-0.145,0.144-0.145h0.769c0.096,0,0.145,0.049,0.145,0.145V68.89z"/>
	<path d="M142.418,62.903c0.096,0,0.144,0.048,0.144,0.144v0.673c0,0.096-0.048,0.144-0.144,0.144h-4.979v4.21h6.146
		c0.096,0,0.145,0.048,0.145,0.144v0.673c0,0.096-0.049,0.144-0.145,0.144h-7.059c-0.096,0-0.145-0.048-0.145-0.144V58.165
		c0-0.096,0.049-0.145,0.145-0.145h6.995c0.111,0,0.159,0.064,0.128,0.16l-0.208,0.673c-0.017,0.096-0.08,0.128-0.16,0.128h-5.843
		v3.922H142.418z"/>
	<path d="M154.979,68.89c0,0.096-0.048,0.144-0.144,0.144h-0.993c-0.079,0-0.128-0.032-0.159-0.111
		c-0.225-0.48-0.593-1.089-0.896-1.569l-4.562-6.69c-0.208-0.336-0.416-0.704-0.528-0.944c-0.063-0.145-0.224-0.096-0.191,0.063
		c0.063,0.4,0.112,0.945,0.112,1.521v7.587c0,0.096-0.049,0.144-0.145,0.144h-0.784c-0.096,0-0.145-0.048-0.145-0.144V58.165
		c0-0.096,0.049-0.145,0.145-0.145h1.008c0.08,0,0.129,0.032,0.16,0.112c0.24,0.465,0.593,1.089,0.896,1.553l4.562,6.69
		c0.224,0.337,0.416,0.705,0.527,0.961c0.064,0.144,0.225,0.08,0.192-0.064c-0.08-0.399-0.112-0.96-0.112-1.521v-7.587
		c0-0.096,0.049-0.145,0.145-0.145h0.769c0.096,0,0.144,0.049,0.144,0.145V68.89z"/>
	<path d="M164.817,68.777c-0.849,0.304-1.408,0.416-2.305,0.416c-2.913,0-4.674-2.177-4.674-5.666c0-3.506,1.761-5.683,4.674-5.683
		c0.912,0,1.44,0.097,2.272,0.4l0.673,0.24c0.08,0.032,0.112,0.096,0.08,0.176l-0.225,0.656c-0.031,0.096-0.096,0.128-0.191,0.096
		l-0.673-0.256c-0.656-0.24-1.137-0.304-1.937-0.304c-2.273,0-3.586,1.729-3.586,4.674c0,2.929,1.312,4.674,3.586,4.674
		c0.769,0,1.265-0.096,1.969-0.353l0.656-0.224c0.08-0.032,0.145,0,0.176,0.08l0.24,0.656c0.032,0.08,0,0.144-0.08,0.176
		L164.817,68.777z"/>
	<path d="M174.594,62.903c0.096,0,0.144,0.048,0.144,0.144v0.673c0,0.096-0.048,0.144-0.144,0.144h-4.979v4.21h6.146
		c0.096,0,0.145,0.048,0.145,0.144v0.673c0,0.096-0.049,0.144-0.145,0.144h-7.059c-0.096,0-0.145-0.048-0.145-0.144V58.165
		c0-0.096,0.049-0.145,0.145-0.145h6.995c0.111,0,0.159,0.064,0.128,0.16l-0.208,0.673c-0.017,0.096-0.08,0.128-0.16,0.128h-5.843
		v3.922H174.594z"/>
	<path d="M186.399,58.021c2.882,0,4.626,2.098,4.626,5.507c0,3.394-1.761,5.506-4.626,5.506h-3.537
		c-0.096,0-0.145-0.048-0.145-0.144V58.165c0-0.096,0.049-0.145,0.145-0.145H186.399z M183.774,68.073h2.625
		c2.241,0,3.554-1.697,3.554-4.546c0-2.865-1.312-4.546-3.554-4.546h-2.625V68.073z"/>
	<path d="M199.938,62.903c0.096,0,0.144,0.048,0.144,0.144v0.673c0,0.096-0.048,0.144-0.144,0.144h-4.979v4.21h6.146
		c0.096,0,0.145,0.048,0.145,0.144v0.673c0,0.096-0.049,0.144-0.145,0.144h-7.059c-0.096,0-0.145-0.048-0.145-0.144V58.165
		c0-0.096,0.049-0.145,0.145-0.145h6.995c0.111,0,0.159,0.064,0.128,0.16l-0.208,0.673c-0.017,0.096-0.08,0.128-0.16,0.128h-5.843
		v3.922H199.938z"/>
	<path d="M205.999,63.511c-1.761-0.656-2.385-1.521-2.385-2.864c0-1.761,1.36-2.802,3.474-2.802c0.832,0,1.601,0.145,2.417,0.4
		l0.8,0.256c0.097,0.032,0.129,0.097,0.097,0.192l-0.225,0.656c-0.032,0.08-0.096,0.112-0.176,0.08l-0.769-0.24
		c-0.704-0.224-1.376-0.336-2.145-0.336c-1.44,0-2.401,0.688-2.401,1.793c0,0.736,0.337,1.424,1.729,1.937l2.209,0.832
		c1.505,0.561,2.417,1.312,2.417,2.77c0,1.904-1.616,3.009-3.857,3.009c-1.2,0-2.097-0.208-3.009-0.544l-0.641-0.24
		c-0.08-0.032-0.112-0.096-0.08-0.176l0.24-0.656c0.032-0.097,0.096-0.128,0.176-0.097l0.641,0.24
		c0.769,0.272,1.553,0.48,2.673,0.48c1.505,0,2.77-0.721,2.77-2.017c0-0.944-0.816-1.489-1.729-1.841L205.999,63.511z"/>
	<path d="M215.006,68.89c0,0.096-0.048,0.144-0.144,0.144h-0.769c-0.096,0-0.145-0.048-0.145-0.144V58.165
		c0-0.096,0.049-0.145,0.145-0.145h0.769c0.096,0,0.144,0.049,0.144,0.145V68.89z"/>
	<path d="M226.081,63.591c0.097,0,0.145,0.049,0.145,0.145v4.434c0,0.096-0.032,0.145-0.112,0.16l-0.272,0.096l-1.024,0.368
		c-0.864,0.305-1.36,0.4-2.288,0.4c-2.914,0-4.658-2.161-4.658-5.666c0-3.489,1.744-5.683,4.658-5.683
		c0.896,0,1.44,0.112,2.305,0.416l0.672,0.24c0.08,0.032,0.112,0.097,0.08,0.177l-0.24,0.672c-0.031,0.08-0.096,0.112-0.176,0.08
		l-0.672-0.24c-0.688-0.24-1.185-0.336-1.969-0.336c-2.258,0-3.57,1.744-3.57,4.674c0,2.929,1.312,4.674,3.57,4.674
		c0.768-0.016,1.264-0.08,1.937-0.32l0.72-0.256v-3.073h-2.177c-0.111,0-0.16-0.064-0.128-0.16l0.192-0.672
		c0.016-0.097,0.08-0.129,0.16-0.129H226.081z"/>
	<path d="M237.809,68.89c0,0.096-0.048,0.144-0.144,0.144h-0.993c-0.079,0-0.128-0.032-0.159-0.111
		c-0.225-0.48-0.593-1.089-0.896-1.569l-4.562-6.69c-0.208-0.336-0.416-0.704-0.528-0.944c-0.063-0.145-0.224-0.096-0.191,0.063
		c0.063,0.4,0.112,0.945,0.112,1.521v7.587c0,0.096-0.049,0.144-0.145,0.144h-0.784c-0.096,0-0.145-0.048-0.145-0.144V58.165
		c0-0.096,0.049-0.145,0.145-0.145h1.008c0.08,0,0.129,0.032,0.16,0.112c0.24,0.465,0.593,1.089,0.896,1.553l4.562,6.69
		c0.224,0.337,0.416,0.705,0.527,0.961c0.064,0.144,0.225,0.08,0.192-0.064c-0.08-0.399-0.112-0.96-0.112-1.521v-7.587
		c0-0.096,0.049-0.145,0.145-0.145h0.769c0.096,0,0.144,0.049,0.144,0.145V68.89z"/>
	<path d="M247.216,62.903c0.096,0,0.144,0.048,0.144,0.144v0.673c0,0.096-0.048,0.144-0.144,0.144h-4.979v4.21h6.146
		c0.097,0,0.145,0.048,0.145,0.144v0.673c0,0.096-0.048,0.144-0.145,0.144h-7.059c-0.096,0-0.145-0.048-0.145-0.144V58.165
		c0-0.096,0.049-0.145,0.145-0.145h6.995c0.111,0,0.16,0.064,0.128,0.16l-0.208,0.673c-0.017,0.096-0.08,0.128-0.16,0.128h-5.843
		v3.922H247.216z"/>
	<path d="M255.679,58.021c2.129,0,3.394,1.104,3.394,2.978c0,1.473-0.896,2.417-2.353,2.897c-0.192,0.063-0.208,0.16-0.017,0.256
		c0.784,0.384,1.297,1.137,1.648,1.969l1.169,2.737c0.048,0.112,0,0.176-0.096,0.176h-0.833c-0.08,0-0.128-0.032-0.16-0.111
		l-1.04-2.401c-0.624-1.505-1.568-2.193-3.153-2.193h-1.841v4.562c0,0.096-0.048,0.144-0.144,0.144h-0.769
		c-0.096,0-0.145-0.048-0.145-0.144V58.165c0-0.096,0.049-0.145,0.145-0.145H255.679z M254.702,63.367
		c2.098,0,3.298-0.849,3.298-2.321c0-1.296-0.881-2.064-2.321-2.064h-3.281v4.386H254.702z"/>
</g>
</svg>
